<svg width="290" height="80" viewBox="0 0 290 80" fill="none" xmlns="http://www.w3.org/2000/svg">
<path d="M32.635 39.1689L16.0987 10.5998L19.5349 4.69168C21.2417 1.70393 24.2121 0 27.6472 0H45.3797H63.0896C66.5483 0 69.4962 1.70286 71.2245 4.69168L81.2429 22.0195H72.3317L65.1284 9.58324C64.397 8.29941 63.0232 7.63668 61.6483 7.72433H28.8433C26.8045 7.72433 25.1416 9.38336 25.1191 11.4197C25.1191 12.1285 25.3407 12.8147 25.6952 13.4337L41.0783 40.0113L28.8208 61.1681C24.7647 54.1525 20.7084 47.138 16.6512 40.1224L20.6421 33.218L28.3561 46.5843L32.635 39.1689ZM88.9365 35.3196L85.5003 29.4114H52.4501L48.1723 21.9971L63.6218 22.0195L59.632 15.1151C51.5196 15.1151 43.3837 15.1151 35.2713 15.1151L47.5063 36.2934H78.5509C79.158 36.3415 79.7544 36.4762 80.2673 36.7809C82.0406 37.821 82.6617 40.0786 81.6187 41.8712L65.2151 70.219C64.6165 71.459 63.353 72.2992 61.8678 72.2992H47.4817L43.0271 80.0011H63.066C66.5247 80.0011 69.4726 78.2982 71.2009 75.3308L80.0682 59.9955L88.9355 44.6815C90.6434 41.6927 90.6434 38.2849 88.9365 35.3196ZM59.5667 51.4074L51.8312 64.7737H59.8108C63.867 57.7581 67.9232 50.7436 71.9794 43.7056H47.5073L32.1253 70.2832C31.7923 70.9032 31.3051 71.4344 30.6851 71.7883C28.9119 72.807 26.6289 72.187 25.6095 70.4157L9.20592 42.0679C8.42959 40.9166 8.34073 39.3902 9.07315 38.1288L16.255 25.6925L11.8005 17.9692L1.78209 35.2971C0.0752399 38.2849 0.0752399 41.6927 1.78209 44.6805L10.6494 59.9944L19.5167 75.3297C21.2449 78.295 24.1939 80 27.629 80H34.4779L50.9917 51.431L59.5667 51.4074Z" fill="url(#paint0_linear_16112_31182)"/>
<path d="M289.501 10.9502V19.876H287.073V14.9075L284.566 17.2902H284.322L281.815 14.9075V19.876H279.386V10.9502H280.358H281.815L284.484 13.8578L287.074 10.9502H288.531H289.501ZM268.383 13.3735H271.214V19.876H273.642V13.3735H276.475V10.9502H268.383V13.3735Z" fill="white"/>
<path d="M175.48 27.9544H159.621C155.212 27.9544 152.541 29.9736 151.65 33.9726C151.529 34.5787 151.448 35.1442 151.448 35.668V53.602C151.448 57.1969 152.823 59.741 155.493 61.1959C156.625 61.802 158.285 62.1248 160.469 62.1248H183.286V53.8842H161.601C160.508 53.8842 159.942 52.9552 159.942 51.4608V48.3512H183.328V47.8263V41V35.8711C183.328 35.265 183.328 34.8203 183.286 34.4975C182.681 30.134 180.092 27.9544 175.48 27.9544ZM174.833 41H159.946V38.2944C159.946 37.8904 160.028 37.6082 160.148 37.4061C160.593 36.5574 161.441 36.1533 162.617 36.1533H172.852C173.014 36.1533 173.175 36.1939 173.298 36.1939C174.148 36.3959 174.835 36.7594 174.835 37.4467V41H174.833ZM123.387 36.2591H140.962V27.9041H121.809C117.849 27.9041 114.58 31.0233 114.58 34.925V42.2613C114.58 46.163 117.849 49.2823 121.809 49.2823H133.067C133.308 49.2823 133.396 49.4448 133.396 49.5388V53.7516C133.396 53.8457 133.309 54.0082 133.067 54.0082H114.582V62.3343H134.707C138.654 62.3343 141.936 59.2568 141.936 55.3722V47.9771C141.936 44.0925 138.656 41.0149 134.707 41.0149H123.388C123.358 41.0149 123.3 41.0021 123.234 40.9316C123.168 40.861 123.121 40.7584 123.121 40.6408V36.5456C123.121 36.4451 123.157 36.3756 123.2 36.3329C123.241 36.2901 123.302 36.2591 123.387 36.2591ZM265.874 31.8315V26.1767C265.874 21.7736 262.273 18.1787 257.864 18.1787H232.66V26.3776H255.72C256.852 26.3776 257.743 27.2264 257.743 28.3969V31.5878C257.743 34.0517 255.679 36.1522 253.212 36.1522H241.6V44.2293H253.212C255.719 44.2293 257.743 46.2486 257.743 48.7125V51.9835C257.743 53.0749 256.853 53.9622 255.72 53.9622H232.66V62.1205H257.864C262.273 62.1205 265.874 58.5662 265.874 54.2038V48.4688C265.874 44.0251 262.353 40.5521 257.864 40.5521V39.8252C262.274 39.8295 265.874 36.2345 265.874 31.8315ZM192.844 35.7492V53.602C192.844 59.2963 195.756 62.1237 201.581 62.1237H223.146V53.9643H203.525C202.23 53.9643 201.179 52.9135 201.179 51.6629V38.4152C201.179 37.0427 202.271 36.1533 203.727 36.1533H223.146V27.9544H199.803C195.148 27.9554 192.844 30.5402 192.844 35.7492Z" fill="white"/>
<defs>
<linearGradient id="paint0_linear_16112_31182" x1="65.5986" y1="4.99323" x2="20.903" y2="82.535" gradientUnits="userSpaceOnUse">
<stop stop-color="#35FFE7"/>
<stop offset="1" stop-color="#7D2EFF"/>
</linearGradient>
</defs>
</svg>
