<svg width="13" height="16" viewBox="0 0 13 16" fill="none" xmlns="http://www.w3.org/2000/svg">
<path d="M4 5.76494C4 4.9734 2.94722 4.7636 2.66791 5.50422C1.99228 7.29574 1.5 8.89839 1.5 9.76486C1.5 12.5263 3.73858 14.7649 6.5 14.7649C9.26142 14.7649 11.5 12.5263 11.5 9.76486C11.5 8.83395 10.9318 7.05331 10.1784 5.10163C9.20257 2.57344 8.71464 1.30934 8.11233 1.24125C7.9196 1.21947 7.70934 1.25864 7.53739 1.34836C7 1.62877 7 3.0075 7 5.76494C7 6.59337 6.32843 7.26494 5.5 7.26494C4.67157 7.26494 4 6.59337 4 5.76494Z" stroke="url(#paint0_linear_14218_26736)" stroke-width="2"/>
<defs>
<linearGradient id="paint0_linear_14218_26736" x1="6.50051" y1="14.7649" x2="6.50051" y2="1.23535" gradientUnits="userSpaceOnUse">
<stop stop-color="#EF84F5"/>
<stop offset="1" stop-color="#2EE09A"/>
</linearGradient>
</defs>
</svg>
