<svg width="20" height="20" viewBox="0 0 20 20" fill="none" xmlns="http://www.w3.org/2000/svg">
<path d="M2.5 9.16699V9.16699C2.5 9.63165 2.5 9.86397 2.53843 10.0572C2.69624 10.8506 3.31644 11.4707 4.10982 11.6286C4.30302 11.667 4.53535 11.667 5 11.667H5.56287C5.92989 11.667 6.11339 11.667 6.27174 11.7216C6.45751 11.7856 6.6203 11.9029 6.73978 12.0589C6.84163 12.1919 6.89966 12.366 7.01572 12.7141L7.08333 12.917C7.26492 13.4618 7.35572 13.7341 7.55249 13.9109C7.60578 13.9588 7.66407 14.0008 7.72634 14.0362C7.95626 14.167 8.24338 14.167 8.81762 14.167H11.1824C11.7566 14.167 12.0437 14.167 12.2737 14.0362C12.3359 14.0008 12.3942 13.9588 12.4475 13.9109C12.6443 13.7341 12.7351 13.4618 12.9167 12.917L12.9843 12.7141C13.1003 12.366 13.1584 12.1919 13.2602 12.0589C13.3797 11.9029 13.5425 11.7856 13.7283 11.7216C13.8866 11.667 14.0701 11.667 14.4371 11.667H15C15.4647 11.667 15.697 11.667 15.8902 11.6286C16.6836 11.4707 17.3038 10.8506 17.4616 10.0572C17.5 9.86397 17.5 9.63165 17.5 9.16699V9.16699" stroke="#111931" stroke-width="1.75" stroke-linejoin="round"/>
<path d="M6.66797 7.5L10.0013 10M10.0013 10L13.3346 7.5M10.0013 10L10.0013 1.66667" stroke="#111931" stroke-width="1.75" stroke-linejoin="round"/>
<path d="M13.3333 4.16699H13.5C15.3856 4.16699 16.3284 4.16699 16.9142 4.75278C17.5 5.33857 17.5 6.28137 17.5 8.16699V13.5003C17.5 15.3859 17.5 16.3288 16.9142 16.9145C16.3284 17.5003 15.3856 17.5003 13.5 17.5003H6.5C4.61438 17.5003 3.67157 17.5003 3.08579 16.9145C2.5 16.3288 2.5 15.3859 2.5 13.5003V8.16699C2.5 6.28137 2.5 5.33857 3.08579 4.75278C3.67157 4.16699 4.61438 4.16699 6.5 4.16699H6.66667" stroke="#111931" stroke-width="1.75" stroke-linejoin="round"/>
</svg>
