<svg width="16" height="16" viewBox="0 0 16 16" fill="none" xmlns="http://www.w3.org/2000/svg">
<rect x="1" y="1" width="14" height="14" rx="7" stroke="#2EE09A" stroke-width="2"/>
<path d="M7.232 1.64H8.736L8.544 9.656H7.392L7.232 1.64ZM7.008 12.136C7.008 11.8587 7.104 11.624 7.296 11.432C7.488 11.24 7.71733 11.144 7.984 11.144C8.25067 11.144 8.47467 11.24 8.656 11.432C8.848 11.624 8.944 11.8587 8.944 12.136C8.944 12.4453 8.848 12.6907 8.656 12.872C8.47467 13.0533 8.25067 13.144 7.984 13.144C7.71733 13.144 7.488 13.0533 7.296 12.872C7.104 12.6907 7.008 12.4453 7.008 12.136Z" fill="#2EE09A"/>
</svg>
