<svg width="24" height="24" viewBox="0 0 24 24" fill="none" xmlns="http://www.w3.org/2000/svg">
<path d="M13.3101 12.6387H12.4583V14.236H13.3101V12.6387Z" fill="white"/>
<path d="M11.8192 9.65723H10.9674V11.2545H11.8192V9.65723Z" fill="white"/>
<path d="M18.6791 0H5.32093C2.38711 0 0 2.38711 0 5.32093V18.6791C0 21.6129 2.38711 24 5.32093 24H18.6791C21.6129 24 24 21.6129 24 18.6791V5.32093C24 2.38711 21.6129 0 18.6791 0ZM5.32093 1.04332H18.6791C21.0375 1.04332 22.9567 2.96251 22.9567 5.32093V6.10342H1.04332V5.32093C1.04332 2.96251 2.96251 1.04332 5.32093 1.04332ZM12.4583 9.65697V11.2543H13.9492V11.9997H14.6946V14.8751H13.9492V15.6206H12.4583V16.366H11.8192V15.6206H10.3283V14.8751H9.58289V13.4906H10.9674V14.2361H11.8192V12.6388H10.3283V11.8933H9.58289V9.01793H10.3283V8.27248H11.8192V7.52703H12.4583V8.27248H13.9492V9.01793H14.6946V10.4024H13.3101V9.65697H12.4583ZM18.6791 22.9567H5.32093C2.96251 22.9567 1.04332 21.0375 1.04332 18.6791V17.8966H22.9567V18.6791C22.9567 21.0375 21.0375 22.9567 18.6791 22.9567Z" fill="white"/>
</svg>
