<svg width="11" height="24" viewBox="0 0 11 24" fill="none" xmlns="http://www.w3.org/2000/svg">
<path d="M4.67665 0C5.66467 0 6.54291 0.143647 7.31138 0.43094C8.1018 0.696132 8.77146 1.08287 9.32036 1.59116C9.86926 2.07735 10.2864 2.66298 10.5719 3.34807C10.8573 4.03315 11 4.77348 11 5.56906C11 6.14365 10.9012 6.69613 10.7036 7.22652C10.5279 7.73481 10.2754 8.23204 9.94611 8.71823C9.63872 9.20442 9.28742 9.66851 8.89221 10.1105C8.497 10.5304 8.1018 10.9282 7.70659 11.3039C6.80639 12.1215 6.10379 12.8398 5.5988 13.4586C5.09381 14.0773 4.84132 14.7735 4.84132 15.547C4.84132 15.8564 4.86327 16.1326 4.90719 16.3757C4.9511 16.6188 5.02794 16.9171 5.13772 17.2707L2.66766 17.7348C2.38224 17.0276 2.23952 16.2873 2.23952 15.5138C2.23952 15.0276 2.29441 14.5746 2.40419 14.1547C2.53593 13.7348 2.72255 13.326 2.96407 12.9282C3.20559 12.5083 3.502 12.0884 3.85329 11.6685C4.20459 11.2486 4.62176 10.7956 5.10479 10.3094C5.5 9.9116 5.87325 9.53591 6.22455 9.18232C6.57585 8.82873 6.88323 8.46409 7.14671 8.0884C7.41018 7.71271 7.61876 7.32597 7.77245 6.92818C7.9481 6.50829 8.03593 6.0663 8.03593 5.60221C8.03593 5.20442 7.97006 4.82873 7.83832 4.47514C7.72854 4.09945 7.53094 3.76796 7.24551 3.48066C6.98204 3.19337 6.61976 2.96133 6.15868 2.78453C5.71956 2.60773 5.17066 2.51934 4.51198 2.51934C4.00699 2.51934 3.46906 2.59668 2.8982 2.75138C2.3493 2.88398 1.8004 3.14917 1.2515 3.54696L0 1.35912C0.636727 0.895027 1.38323 0.552486 2.23952 0.331491C3.09581 0.110497 3.90818 0 4.67665 0ZM2.17365 21.9116C2.17365 21.337 2.37126 20.8508 2.76647 20.453C3.16168 20.0552 3.63373 19.8564 4.18263 19.8564C4.73154 19.8564 5.19261 20.0552 5.56587 20.453C5.96108 20.8508 6.15868 21.337 6.15868 21.9116C6.15868 22.5525 5.96108 23.0608 5.56587 23.4365C5.19261 23.8122 4.73154 24 4.18263 24C3.63373 24 3.16168 23.8122 2.76647 23.4365C2.37126 23.0608 2.17365 22.5525 2.17365 21.9116Z" fill="url(#paint0_linear_17567_47039)"/>
<defs>
<linearGradient id="paint0_linear_17567_47039" x1="5.50056" y1="24" x2="5.50056" y2="0" gradientUnits="userSpaceOnUse">
<stop stop-color="#EF84F5"/>
<stop offset="1" stop-color="#2EE09A"/>
</linearGradient>
</defs>
</svg>
