<svg width="33" height="23" viewBox="0 0 33 23" fill="none" xmlns="http://www.w3.org/2000/svg">
<path fill-rule="evenodd" clip-rule="evenodd" d="M10.649 14.5875C10.1879 13.9245 10.6624 13.0166 11.47 13.0166H21.5315C22.3393 13.0166 22.8137 13.9247 22.3524 14.5877L17.3206 21.8203C16.9227 22.3922 16.0765 22.3921 15.6787 21.8201L10.649 14.5875Z" fill="white"/>
<path fill-rule="evenodd" clip-rule="evenodd" d="M17.5381 9.85406C18.3459 9.85406 18.8203 8.94597 18.359 8.28294L12.8945 0.428879C12.7076 0.160191 12.401 0 12.0736 0H2.41401C1.60629 0 1.13183 0.908099 1.59315 1.57113L7.05775 9.42519C7.2447 9.69387 7.5513 9.85406 7.87861 9.85406H17.5381Z" fill="white"/>
<path fill-rule="evenodd" clip-rule="evenodd" d="M19.9749 0C19.6476 0 19.341 0.160215 19.154 0.428935L17.7693 2.41947C17.5306 2.76267 17.5305 3.21818 17.7692 3.56144L21.8465 9.42496C22.0334 9.69378 22.3401 9.85406 22.6675 9.85406H25.1244C25.4518 9.85406 25.7584 9.6938 25.9453 9.42501L31.4075 1.57095C31.8686 0.907904 31.3941 0 30.5865 0H19.9749Z" fill="white"/>
</svg>
