<svg width="32" height="24" viewBox="0 0 32 24" fill="none" xmlns="http://www.w3.org/2000/svg">
<path d="M14.303 18.375C15.8273 18.375 17.0628 19.6105 17.0628 21.1348C17.0628 22.659 15.8273 23.8945 14.303 23.8945C12.7787 23.8945 11.5433 22.6591 11.5433 21.1348C11.5433 19.6105 12.7787 18.375 14.303 18.375ZM25.303 18.375C26.8273 18.375 28.0628 19.6105 28.0628 21.1348C28.0628 22.659 26.8273 23.8945 25.303 23.8945C23.7787 23.8945 22.5433 22.6591 22.5433 21.1348C22.5433 19.6105 23.7787 18.375 25.303 18.375ZM14.303 19.8945C13.6182 19.8945 13.0628 20.4499 13.0628 21.1348C13.0628 21.8196 13.6182 22.375 14.303 22.375C14.9878 22.375 15.5433 21.8196 15.5433 21.1348C15.5433 20.45 14.9878 19.8946 14.303 19.8945ZM25.303 19.8945C24.6182 19.8945 24.0628 20.4499 24.0628 21.1348C24.0628 21.8196 24.6182 22.375 25.303 22.375C25.9878 22.375 26.5433 21.8196 26.5433 21.1348C26.5433 20.45 25.9878 19.8946 25.303 19.8945ZM3.34015 0C4.86306 0.0428732 6.29747 0.678482 7.35089 1.74902C7.66101 1.42622 8.07873 1.20373 8.555 1.14844L8.79035 1.13477H28.9886L29.2142 1.14746C30.3214 1.27101 31.1338 2.29329 30.9681 3.4248L29.2103 15.4248L29.1751 15.6055C28.9748 16.4355 28.2655 17.0478 27.4153 17.126L27.2308 17.1348H11.4271L11.2523 17.127C10.4459 17.0567 9.75929 16.505 9.51789 15.7324L9.47394 15.5645L6.95148 4.08691L6.67804 3.65137C5.88992 2.39993 4.49377 1.66404 3.01593 1.7207L1.90265 1.76367C1.4283 1.78159 1.02929 1.41094 1.01105 0.936523C0.993067 0.462224 1.36293 0.0623651 1.83722 0.0439453L2.94953 0.00195312L3.34015 0ZM8.79035 2.85449C8.61149 2.85449 8.47853 3.02062 8.51691 3.19531L8.56671 3.42188L8.72687 3.67676C8.88028 3.92044 8.89512 4.21114 8.79425 4.45898L11.1536 15.1953L11.1683 15.2412C11.2108 15.3447 11.3121 15.415 11.4271 15.415H27.2308C27.3696 15.415 27.4878 15.313 27.5081 15.1758L29.2659 3.17578L29.2679 3.11328C29.2572 2.97098 29.1381 2.85453 28.9886 2.85449H8.79035ZM17.7913 4.21875C18.0767 4.14244 18.3699 4.31137 18.4466 4.59668L18.4915 4.76562C18.5808 5.09822 18.8972 5.31596 19.2415 5.32324C19.2881 5.32423 19.3353 5.32515 19.3831 5.32715C19.4786 5.33128 19.5747 5.34075 19.6702 5.35449C19.9713 5.39804 20.1587 5.68585 20.1361 5.98926L20.1341 6.01367C20.1039 6.41875 19.7029 6.70279 19.2972 6.68359C18.9978 6.66984 18.721 6.69661 18.4671 6.76465C18.2348 6.82693 18.0567 6.9303 17.9319 7.07422C17.8073 7.21805 17.7688 7.38131 17.8177 7.56445C17.8668 7.74784 17.969 7.86679 18.1292 7.94238C18.2896 8.01826 18.5605 8.07075 18.9417 8.09961L19.4886 8.13672C20.0842 8.182 20.5739 8.34173 20.9583 8.61523C21.3426 8.88893 21.6052 9.28522 21.7444 9.80469C21.81 10.0494 21.8346 10.2932 21.8177 10.5352C21.8008 10.7772 21.7367 11.0112 21.6263 11.2373C21.5157 11.4635 21.3551 11.6722 21.1458 11.8633C21.0746 11.9283 20.9966 11.9903 20.9124 12.0488C20.6109 12.2586 20.4209 12.6179 20.5159 12.9727L20.5677 13.166C20.6439 13.4515 20.4743 13.7448 20.1888 13.8213C19.9032 13.8978 19.61 13.728 19.5335 13.4424L19.4876 13.2734C19.3933 12.9214 19.0474 12.7053 18.6829 12.707C18.4123 12.7084 18.1475 12.6811 17.889 12.626C17.5827 12.5607 17.4086 12.2524 17.4593 11.9434C17.5265 11.5345 17.9541 11.2993 18.3665 11.3398C18.405 11.3436 18.4434 11.3466 18.4818 11.3486C18.7737 11.3646 19.0506 11.3375 19.3118 11.2676C19.6819 11.1684 19.9165 11.0342 20.015 10.8643C20.1133 10.6948 20.1409 10.5296 20.098 10.3691C20.055 10.2087 19.9609 10.0825 19.8157 9.99023C19.6705 9.89831 19.419 9.83867 19.0618 9.81152L18.4544 9.76562C18.2017 9.75154 17.9557 9.71048 17.7161 9.64355C17.4766 9.57688 17.2538 9.48085 17.0491 9.35547C16.8444 9.23029 16.6678 9.07042 16.5189 8.87695C16.3697 8.68357 16.2567 8.44581 16.181 8.16309C16.1052 7.88031 16.0861 7.60497 16.1234 7.33691C16.1604 7.06919 16.2425 6.82409 16.3694 6.60156C16.4966 6.37912 16.6664 6.18406 16.8782 6.0166C16.9246 5.97996 16.9731 5.94509 17.0228 5.91211C17.3302 5.70769 17.5392 5.34974 17.4437 4.99316L17.4124 4.87402C17.336 4.58844 17.5057 4.29527 17.7913 4.21875Z" fill="white"/>
</svg>
