<?xml version="1.0" encoding="utf-8"?>
<svg version="1.1" id="Warstwa_1" xmlns="http://www.w3.org/2000/svg" xmlns:xlink="http://www.w3.org/1999/xlink" x="0px" y="0px"
	 viewBox="0 0 24 24" style="enable-background:new 0 0 24 24;" xml:space="preserve">
<style type="text/css">
	.st0{fill-rule:evenodd;clip-rule:evenodd;fill:#FFFFFF;filter:url(#Adobe_OpacityMaskFilter);}
	.st1{fill:#FFFFFF;}
	.st2{mask:url(#path-1-inside-1_13775_25284_8_);fill:none;stroke:#FFFFFF;stroke-width:1.2;}
	.st3{fill:#2EE09A;}
	.st4{fill-rule:evenodd;clip-rule:evenodd;fill:#2EE09A;}
	.st5{fill-rule:evenodd;clip-rule:evenodd;fill:#FFFFFF;filter:url(#Adobe_OpacityMaskFilter_1_);}
	.st6{mask:url(#path-1-inside-1_13775_25284_5_);fill:#2EE09A;}
</style>
<defs>
	<filter id="Adobe_OpacityMaskFilter" filterUnits="userSpaceOnUse" x="0.8" y="0.7" width="22.5" height="22.5">
		<feColorMatrix  type="matrix" values="1 0 0 0 0  0 1 0 0 0  0 0 1 0 0  0 0 0 1 0"/>
	</filter>
</defs>
<mask maskUnits="userSpaceOnUse" x="0.8" y="0.7" width="22.5" height="22.5" id="path-1-inside-1_13775_25284_8_">
	<path class="st0" d="M4.4,8.7l1.5-1.9c0.5-0.6,1-1.2,1.6-1.8c2.4-2.4,5.2-4,7.8-4.7c2.6-0.6,5.2-0.4,6.9,1.4c0,0,0,0,0,0
		c0,0,0,0,0.1,0.1c1.7,1.7,2,4.3,1.3,6.9c-0.6,2.6-2.3,5.4-4.6,7.8c-0.6,0.6-1.2,1.1-1.8,1.6l-1.9,1.5l0.3-2.3
		c-0.4,0.4-0.9,0.8-1.4,1.2c-2.1,1.8-4.3,3.3-6.3,4.2l-2.4,1.1l1.1-2.6c-1,0.6-1.9,1.1-2.7,1.4c-0.7,0.3-1.3,0.5-1.7,0.7
		c-0.2,0.1-0.3,0.1-0.5,0.2c-0.1,0-0.1,0-0.1,0c0,0,0,0,0,0c0,0,0,0,0,0h0l0,0c0,0-0.1-0.3-0.3-1c0,0,0.4-0.1,1.2-0.4
		c1-0.4,2.7-1.2,4.8-2.6c0.5-0.3,1-0.7,1.6-1.1l-1.5,3.4c0.5-0.2,0.9-0.4,1.4-0.7c1.5-0.8,3.1-2,4.6-3.3c0.8-0.7,1.5-1.4,2.2-2.1
		c0.4-0.4,0.8-0.8,1.2-1.3l-0.4,2.8c0.4-0.3,0.8-0.6,1.1-1c0.2-0.2,0.4-0.4,0.6-0.6c4.6-4.6,6-10.5,3.3-13.3c0,0,0,0,0,0
		c0,0,0,0,0,0c-2.8-2.7-8.7-1.3-13.3,3.3C8,5.9,7.8,6.1,7.6,6.3C7.3,6.7,7,7,6.7,7.4l2.8-0.4C9.1,7.4,8.7,7.8,8.3,8.2
		C7.5,9,6.8,9.7,6.2,10.5c-1.3,1.6-2.5,3.1-3.3,4.6c-0.3,0.5-0.5,1-0.7,1.4L5.5,15c-0.4,0.6-0.8,1.1-1.1,1.6c-1.4,2-2.1,3.7-2.6,4.8
		c-0.3,0.8-0.4,1.2-0.4,1.2c-0.6-0.2-1-0.3-1-0.3v0l0,0c0,0,0,0,0,0c0,0,0,0,0,0c0,0,0-0.1,0-0.1c0-0.1,0.1-0.3,0.2-0.5
		c0.1-0.4,0.4-1,0.7-1.7c0.3-0.7,0.8-1.6,1.4-2.7l-2.6,1.2l1.1-2.4c0.9-2,2.3-4.2,4.2-6.3c0.4-0.5,0.8-0.9,1.2-1.4L4.4,8.7L4.4,8.7z
		 M1.4,22.6l0.3,1L0,24l0.4-1.7L1.4,22.6z"/>
	<path class="st1" d="M1.9,1.9c1.7-1.7,4.1-1.9,6.9-1c1.1,0.4,2.3,0.9,3.5,1.7c0,0,0,0,0.1,0C8.3,0,4.3-0.6,1.9,1.9
		c-2.8,2.7-1.7,7.3,1.7,11.9c0,0,0,0,0-0.1c-1.2-1.7-2.2-3.4-2.7-5C0.1,6,0.3,3.6,1.9,1.9z"/>
	<path class="st1" d="M4.9,15.3L4.9,15.3c0,0.1,0.1,0.2,0.2,0.3c0,0,0,0,0-0.1C5,15.5,5,15.4,4.9,15.3z"/>
	<path class="st1" d="M8.4,18.9C8.4,18.9,8.4,18.9,8.4,18.9c0,0.1,0.1,0.2,0.2,0.3l0-0.1C8.6,19.1,8.5,19,8.4,18.9z"/>
	<path class="st1" d="M10.2,20.3C10.2,20.4,10.2,20.4,10.2,20.3c4.6,3.5,9.2,4.6,12,1.8c2.5-2.5,1.8-6.4-0.7-10.5c0,0,0,0,0,0.1
		c0.8,1.2,1.3,2.4,1.7,3.5c0.9,2.7,0.7,5.2-1,6.9c-1.7,1.7-4.2,1.9-6.9,1C13.6,22.6,11.9,21.6,10.2,20.3z"/>
	<path class="st1" d="M18.3,15.8c0.1,0.2,0.2,0.4,0.2,0.5c0.2,0.6,0.3,1.1,0.4,1.5c0,0.2,0,0.3,0,0.4c1.2,0.2,2.4,0.2,3.7-0.1
		c0-0.9-0.2-1.7-0.4-2.6c-0.2-0.6-0.5-1.3-0.8-1.9c-0.2-0.3-0.3-0.6-0.5-1C20.2,13.7,19.3,14.8,18.3,15.8
		C18.3,15.8,18.3,15.8,18.3,15.8z"/>
	<path class="st1" d="M11.4,3.2c-1-0.6-1.9-1-2.8-1.3C7.7,1.6,6.8,1.4,5.9,1.4c0,0,0,0,0,0c0,0,0,0,0,0C5.6,2.7,5.6,4,5.8,5.1
		c0,0,0.1,0,0.1,0c0.3,0,0.8,0,1.5,0.3c0.3,0.1,0.6,0.2,0.9,0.3c0,0,0,0,0,0C9.2,4.7,10.3,3.8,11.4,3.2z"/>
	<path class="st1" d="M5.2,6c0,0.4,0.2,0.8,0.4,1.4C5.8,8,6.1,8.5,6.4,9.2c0.9,1.7,2.1,3,2.8,3.8c0.3,0.3,0.6,0.6,0.9,0.9
		c0.3,0.3,0.6,0.6,0.9,0.8c0.8,0.8,2.2,2,3.9,2.9c0.2,0.1,0.4,0.2,0.6,0.4c0.5,0.3,1,0.5,1.5,0.6c0.4,0.1,0.7,0.2,1,0.2
		c1.4,0.3,3,0.4,4.6-0.1c0,0.5-0.1,1-0.3,1.4c-0.2,0.5-0.5,0.9-0.9,1.3c-0.5,0.5-1,0.8-1.6,1c-0.5,0.2-1,0.2-1.5,0.2
		c-0.9,0-1.7-0.2-2.6-0.5c-1.3-0.4-2.7-1.2-4.1-2.1c-1.4-0.9-2.8-2.1-4.2-3.5c-1.2-1.2-2.2-2.4-3.1-3.7c-0.7-0.9-1.2-1.8-1.7-2.7
		C2.3,9.5,2,8.9,1.8,8.2c-0.3-1-0.5-1.9-0.4-2.9c0-0.5,0.1-1,0.3-1.4c0.2-0.5,0.5-0.9,0.9-1.3c0.5-0.5,1-0.8,1.6-1
		c0.4-0.1,0.8-0.2,1.2-0.2C4.9,3,4.9,4.6,5.2,6L5.2,6L5.2,6z"/>
</mask>
<path class="st2" d="M5.2,6c0,0.4,0.2,0.8,0.4,1.4C5.8,8,6.1,8.5,6.4,9.2c0.9,1.7,2.1,3,2.8,3.8c0.3,0.3,0.6,0.6,0.9,0.9
	c0.3,0.3,0.6,0.6,0.9,0.8c0.8,0.8,2.2,2,3.9,2.9c0.2,0.1,0.4,0.2,0.6,0.4c0.5,0.3,1,0.5,1.5,0.6c0.4,0.1,0.7,0.2,1,0.2
	c1.4,0.3,3,0.4,4.6-0.1c0,0.5-0.1,1-0.3,1.4c-0.2,0.5-0.5,0.9-0.9,1.3c-0.5,0.5-1,0.8-1.6,1c-0.5,0.2-1,0.2-1.5,0.2
	c-0.9,0-1.7-0.2-2.6-0.5c-1.3-0.4-2.7-1.2-4.1-2.1c-1.4-0.9-2.8-2.1-4.2-3.5c-1.2-1.2-2.2-2.4-3.1-3.7c-0.7-0.9-1.2-1.8-1.7-2.7
	C2.3,9.5,2,8.9,1.8,8.2c-0.3-1-0.5-1.9-0.4-2.9c0-0.5,0.1-1,0.3-1.4c0.2-0.5,0.5-0.9,0.9-1.3c0.5-0.5,1-0.8,1.6-1
	c0.4-0.1,0.8-0.2,1.2-0.2C4.9,3,4.9,4.6,5.2,6L5.2,6L5.2,6z"/>
<path class="st3" d="M1.9,1.9c1.7-1.7,4.1-1.9,6.9-1c1.1,0.4,2.3,0.9,3.5,1.7c0,0,0,0,0.1,0C8.3,0,4.3-0.6,1.9,1.9
	c-2.8,2.7-1.7,7.3,1.7,11.9c0,0,0,0,0-0.1c-1.2-1.7-2.2-3.4-2.7-5C0.1,6,0.3,3.6,1.9,1.9z"/>
<path class="st4" d="M4.4,8.7l1.5-1.9c0.5-0.6,1-1.2,1.6-1.8c2.4-2.4,5.2-4,7.8-4.7c2.6-0.6,5.2-0.4,6.9,1.4c0,0,0,0,0,0
	c0,0,0,0,0.1,0.1c1.7,1.7,2,4.3,1.3,6.9c-0.6,2.6-2.3,5.4-4.6,7.8c-0.6,0.6-1.2,1.1-1.8,1.6l-1.9,1.5l0.3-2.3
	c-0.4,0.4-0.9,0.8-1.4,1.2c-2.1,1.8-4.3,3.3-6.3,4.2l-2.4,1.1l1.1-2.6c-1,0.6-1.9,1.1-2.7,1.4c-0.7,0.3-1.3,0.5-1.7,0.7
	c-0.2,0.1-0.3,0.1-0.5,0.2c-0.1,0-0.1,0-0.1,0c0,0,0,0,0,0c0,0,0,0,0,0h0l0,0c0,0-0.1-0.3-0.3-1c0,0,0.4-0.1,1.2-0.4
	c1-0.4,2.7-1.2,4.8-2.6c0.5-0.3,1-0.7,1.6-1.1l-1.5,3.4c0.5-0.2,0.9-0.4,1.4-0.7c1.5-0.8,3.1-2,4.6-3.3c0.8-0.7,1.5-1.4,2.2-2.1
	c0.4-0.4,0.8-0.8,1.2-1.3l-0.4,2.8c0.4-0.3,0.8-0.6,1.1-1c0.2-0.2,0.4-0.4,0.6-0.6c4.6-4.6,6-10.5,3.3-13.3c0,0,0,0,0,0c0,0,0,0,0,0
	c-2.8-2.7-8.7-1.3-13.3,3.3C8,5.9,7.8,6.1,7.6,6.3C7.3,6.7,7,7,6.7,7.4l2.8-0.4C9.1,7.4,8.7,7.8,8.3,8.2C7.5,9,6.8,9.7,6.2,10.5
	c-1.3,1.6-2.5,3.1-3.3,4.6c-0.3,0.5-0.5,1-0.7,1.4L5.5,15c-0.4,0.6-0.8,1.1-1.1,1.6c-1.4,2-2.1,3.7-2.6,4.8
	c-0.3,0.8-0.4,1.2-0.4,1.2c-0.6-0.2-1-0.3-1-0.3v0l0,0c0,0,0,0,0,0c0,0,0,0,0,0c0,0,0-0.1,0-0.1c0-0.1,0.1-0.3,0.2-0.5
	c0.1-0.4,0.4-1,0.7-1.7c0.3-0.7,0.8-1.6,1.4-2.7l-2.6,1.2l1.1-2.4c0.9-2,2.3-4.2,4.2-6.3c0.4-0.5,0.8-0.9,1.2-1.4L4.4,8.7L4.4,8.7z
	 M1.4,22.6l0.3,1L0,24l0.4-1.7L1.4,22.6z"/>
<path class="st3" d="M11.4,3.2c-1-0.6-1.9-1-2.8-1.3C7.7,1.6,6.8,1.4,5.9,1.4c0,0,0,0,0,0c0,0,0,0,0,0C5.6,2.7,5.6,4,5.8,5.1
	c0,0,0.1,0,0.1,0c0.3,0,0.8,0,1.5,0.3c0.3,0.1,0.6,0.2,0.9,0.3c0,0,0,0,0,0C9.2,4.7,10.3,3.8,11.4,3.2z"/>
<path class="st3" d="M5.2,6c0,0.4,0.2,0.8,0.4,1.4C5.8,8,6.1,8.5,6.4,9.2c0.9,1.7,2.1,3,2.8,3.8c0.3,0.3,0.6,0.6,0.9,0.9
	c0.3,0.3,0.6,0.6,0.9,0.8c0.8,0.8,2.2,2,3.9,2.9c0.2,0.1,0.4,0.2,0.6,0.4c0.5,0.3,1,0.5,1.5,0.6c0.4,0.1,0.7,0.2,1,0.2
	c1.4,0.3,3,0.4,4.6-0.1c0,0.5-0.1,1-0.3,1.4c-0.2,0.5-0.5,0.9-0.9,1.3c-0.5,0.5-1,0.8-1.6,1c-0.5,0.2-1,0.2-1.5,0.2
	c-0.9,0-1.7-0.2-2.6-0.5c-1.3-0.4-2.7-1.2-4.1-2.1c-1.4-0.9-2.8-2.1-4.2-3.5c-1.2-1.2-2.2-2.4-3.1-3.7c-0.7-0.9-1.2-1.8-1.7-2.7
	C2.3,9.5,2,8.9,1.8,8.2c-0.3-1-0.5-1.9-0.4-2.9c0-0.5,0.1-1,0.3-1.4c0.2-0.5,0.5-0.9,0.9-1.3c0.5-0.5,1-0.8,1.6-1
	c0.4-0.1,0.8-0.2,1.2-0.2C4.9,3,4.9,4.6,5.2,6L5.2,6L5.2,6z"/>
<defs>
	<filter id="Adobe_OpacityMaskFilter_1_" filterUnits="userSpaceOnUse" x="10.1" y="11.6" width="13.6" height="12.1">
		<feColorMatrix  type="matrix" values="1 0 0 0 0  0 1 0 0 0  0 0 1 0 0  0 0 0 1 0"/>
	</filter>
</defs>
<mask maskUnits="userSpaceOnUse" x="10.1" y="11.6" width="13.6" height="12.1" id="path-1-inside-1_13775_25284_5_">
	<path class="st5" d="M4.4,8.7l1.5-1.9c0.5-0.6,1-1.2,1.6-1.8c2.4-2.4,5.2-4,7.8-4.7c2.6-0.6,5.2-0.4,6.9,1.4c0,0,0,0,0,0
		c0,0,0,0,0.1,0.1c1.7,1.7,2,4.3,1.3,6.9c-0.6,2.6-2.3,5.4-4.6,7.8c-0.6,0.6-1.2,1.1-1.8,1.6l-1.9,1.5l0.3-2.3
		c-0.4,0.4-0.9,0.8-1.4,1.2c-2.1,1.8-4.3,3.3-6.3,4.2l-2.4,1.1l1.1-2.6c-1,0.6-1.9,1.1-2.7,1.4c-0.7,0.3-1.3,0.5-1.7,0.7
		c-0.2,0.1-0.3,0.1-0.5,0.2c-0.1,0-0.1,0-0.1,0c0,0,0,0,0,0c0,0,0,0,0,0h0l0,0c0,0-0.1-0.3-0.3-1c0,0,0.4-0.1,1.2-0.4
		c1-0.4,2.7-1.2,4.8-2.6c0.5-0.3,1-0.7,1.6-1.1l-1.5,3.4c0.5-0.2,0.9-0.4,1.4-0.7c1.5-0.8,3.1-2,4.6-3.3c0.8-0.7,1.5-1.4,2.2-2.1
		c0.4-0.4,0.8-0.8,1.2-1.3l-0.4,2.8c0.4-0.3,0.8-0.6,1.1-1c0.2-0.2,0.4-0.4,0.6-0.6c4.6-4.6,6-10.5,3.3-13.3c0,0,0,0,0,0
		c0,0,0,0,0,0c-2.8-2.7-8.7-1.3-13.3,3.3C8,5.9,7.8,6.1,7.6,6.3C7.3,6.7,7,7,6.7,7.4l2.8-0.4C9.1,7.4,8.7,7.8,8.3,8.2
		C7.5,9,6.8,9.7,6.2,10.5c-1.3,1.6-2.5,3.1-3.3,4.6c-0.3,0.5-0.5,1-0.7,1.4L5.5,15c-0.4,0.6-0.8,1.1-1.1,1.6c-1.4,2-2.1,3.7-2.6,4.8
		c-0.3,0.8-0.4,1.2-0.4,1.2c-0.6-0.2-1-0.3-1-0.3v0l0,0c0,0,0,0,0,0c0,0,0,0,0,0c0,0,0-0.1,0-0.1c0-0.1,0.1-0.3,0.2-0.5
		c0.1-0.4,0.4-1,0.7-1.7c0.3-0.7,0.8-1.6,1.4-2.7l-2.6,1.2l1.1-2.4c0.9-2,2.3-4.2,4.2-6.3c0.4-0.5,0.8-0.9,1.2-1.4L4.4,8.7L4.4,8.7z
		 M1.4,22.6l0.3,1L0,24l0.4-1.7L1.4,22.6z"/>
	<path class="st1" d="M1.9,1.9c1.7-1.7,4.1-1.9,6.9-1c1.1,0.4,2.3,0.9,3.5,1.7c0,0,0,0,0.1,0C8.3,0,4.3-0.6,1.9,1.9
		c-2.8,2.7-1.7,7.3,1.7,11.9c0,0,0,0,0-0.1c-1.2-1.7-2.2-3.4-2.7-5C0.1,6,0.3,3.6,1.9,1.9z"/>
	<path class="st1" d="M4.9,15.3L4.9,15.3c0,0.1,0.1,0.2,0.2,0.3c0,0,0,0,0-0.1C5,15.5,5,15.4,4.9,15.3z"/>
	<path class="st1" d="M8.4,18.9C8.4,18.9,8.4,18.9,8.4,18.9c0,0.1,0.1,0.2,0.2,0.3l0-0.1C8.6,19.1,8.5,19,8.4,18.9z"/>
	<path class="st1" d="M10.2,20.3C10.2,20.4,10.2,20.4,10.2,20.3c4.6,3.5,9.2,4.6,12,1.8c2.5-2.5,1.8-6.4-0.7-10.5c0,0,0,0,0,0.1
		c0.8,1.2,1.3,2.4,1.7,3.5c0.9,2.7,0.7,5.2-1,6.9c-1.7,1.7-4.2,1.9-6.9,1C13.6,22.6,11.9,21.6,10.2,20.3z"/>
	<path class="st1" d="M18.3,15.8c0.1,0.2,0.2,0.4,0.2,0.5c0.2,0.6,0.3,1.1,0.4,1.5c0,0.2,0,0.3,0,0.4c1.2,0.2,2.4,0.2,3.7-0.1
		c0-0.9-0.2-1.7-0.4-2.6c-0.2-0.6-0.5-1.3-0.8-1.9c-0.2-0.3-0.3-0.6-0.5-1C20.2,13.7,19.3,14.8,18.3,15.8
		C18.3,15.8,18.3,15.8,18.3,15.8z"/>
	<path class="st1" d="M11.4,3.2c-1-0.6-1.9-1-2.8-1.3C7.7,1.6,6.8,1.4,5.9,1.4c0,0,0,0,0,0c0,0,0,0,0,0C5.6,2.7,5.6,4,5.8,5.1
		c0,0,0.1,0,0.1,0c0.3,0,0.8,0,1.5,0.3c0.3,0.1,0.6,0.2,0.9,0.3c0,0,0,0,0,0C9.2,4.7,10.3,3.8,11.4,3.2z"/>
	<path class="st1" d="M5.2,6c0,0.4,0.2,0.8,0.4,1.4C5.8,8,6.1,8.5,6.4,9.2c0.9,1.7,2.1,3,2.8,3.8c0.3,0.3,0.6,0.6,0.9,0.9
		c0.3,0.3,0.6,0.6,0.9,0.8c0.8,0.8,2.2,2,3.9,2.9c0.2,0.1,0.4,0.2,0.6,0.4c0.5,0.3,1,0.5,1.5,0.6c0.4,0.1,0.7,0.2,1,0.2
		c1.4,0.3,3,0.4,4.6-0.1c0,0.5-0.1,1-0.3,1.4c-0.2,0.5-0.5,0.9-0.9,1.3c-0.5,0.5-1,0.8-1.6,1c-0.5,0.2-1,0.2-1.5,0.2
		c-0.9,0-1.7-0.2-2.6-0.5c-1.3-0.4-2.7-1.2-4.1-2.1c-1.4-0.9-2.8-2.1-4.2-3.5c-1.2-1.2-2.2-2.4-3.1-3.7c-0.7-0.9-1.2-1.8-1.7-2.7
		C2.3,9.5,2,8.9,1.8,8.2c-0.3-1-0.5-1.9-0.4-2.9c0-0.5,0.1-1,0.3-1.4c0.2-0.5,0.5-0.9,0.9-1.3c0.5-0.5,1-0.8,1.6-1
		c0.4-0.1,0.8-0.2,1.2-0.2C4.9,3,4.9,4.6,5.2,6L5.2,6L5.2,6z"/>
</mask>
<path class="st6" d="M10.2,20.3C10.2,20.4,10.2,20.4,10.2,20.3c4.6,3.5,9.2,4.6,12,1.8c2.5-2.5,1.8-6.4-0.7-10.5c0,0,0,0,0,0.1
	c0.8,1.2,1.3,2.4,1.7,3.5c0.9,2.7,0.7,5.2-1,6.9c-1.7,1.7-4.2,1.9-6.9,1C13.6,22.6,11.9,21.6,10.2,20.3z"/>
<path class="st3" d="M18.3,15.8c0.1,0.2,0.2,0.4,0.2,0.5c0.2,0.6,0.3,1.1,0.4,1.5c0,0.2,0,0.3,0,0.4c1.2,0.2,2.4,0.2,3.7-0.1
	c0-0.9-0.2-1.7-0.4-2.6c-0.2-0.6-0.5-1.3-0.8-1.9c-0.2-0.3-0.3-0.6-0.5-1C20.2,13.7,19.3,14.8,18.3,15.8
	C18.3,15.8,18.3,15.8,18.3,15.8z"/>
</svg>
