<svg width="9" height="13" viewBox="0 0 9 13" fill="none" xmlns="http://www.w3.org/2000/svg">
<path fill-rule="evenodd" clip-rule="evenodd" d="M5.0017 0.217266L5.00476 0.220441L5.01649 0.232701C5.0264 0.2431 5.04045 0.257926 5.05834 0.277013C5.09411 0.315182 5.14525 0.370425 5.20933 0.441402C5.33744 0.583287 5.51764 0.788459 5.73041 1.04617C6.15491 1.56035 6.71422 2.2899 7.24886 3.14824C8.28702 4.81497 9.36389 7.17459 8.88118 9.42207C8.47498 11.3134 7.36087 12.2373 6.34332 12.6574C5.84818 12.8618 5.38371 12.9454 5.04493 12.9788C4.87439 12.9956 4.73241 13 4.62998 13C4.57867 13 4.537 12.9989 4.50632 12.9976C4.50416 12.9976 4.50205 12.9975 4.5 12.9974C4.49795 12.9975 4.49584 12.9976 4.49368 12.9976C4.463 12.9989 4.42133 13 4.37002 13C4.26759 13 4.12561 12.9956 3.95507 12.9788C3.6163 12.9454 3.15182 12.8618 2.65668 12.6574C1.63913 12.2373 0.525026 11.3134 0.118817 9.42207C-0.363885 7.17459 0.712979 4.81497 1.75114 3.14824C2.28578 2.2899 2.84509 1.56035 3.26959 1.04617C3.48236 0.788459 3.66256 0.583287 3.79067 0.441402C3.85475 0.370425 3.90589 0.315182 3.94166 0.277013C3.95955 0.257926 3.9736 0.2431 3.98351 0.232701L3.99524 0.220441L3.99843 0.217136C4.13724 0.0725615 4.31854 1.36688e-05 4.5 0" fill="#EF84F5"/>
<line x1="1.5" y1="7.5" x2="7.5" y2="7.5" stroke="#111931"/>
</svg>
