<svg width="26" height="20" viewBox="0 0 26 20" fill="none" xmlns="http://www.w3.org/2000/svg">
<path d="M19.667 0C20.8946 -4.01708e-07 21.9202 -0.00194062 22.7314 0.111328C23.5753 0.22921 24.334 0.488474 24.9395 1.11719C25.5399 1.74069 25.7834 2.51294 25.8945 3.37109C26.0024 4.20427 26 5.26008 26 6.53809V13.4619C26 14.7399 26.0024 15.7957 25.8945 16.6289C25.7834 17.4871 25.5399 18.2593 24.9395 18.8828C24.334 19.5115 23.5753 19.7708 22.7314 19.8887C21.9202 20.0019 20.8946 20 19.667 20H6.33301C5.1054 20 4.07984 20.0019 3.26855 19.8887C2.42466 19.7708 1.666 19.5115 1.06055 18.8828C0.46014 18.2593 0.216606 17.4871 0.105469 16.6289C-0.00240037 15.7957 -3.84461e-07 14.7399 0 13.4619V6.53809C-3.87607e-07 5.26008 -0.00240064 4.20427 0.105469 3.37109C0.216606 2.51294 0.460139 1.74069 1.06055 1.11719C1.666 0.488473 2.42466 0.22921 3.26855 0.111328C4.07984 -0.00194109 5.1054 -4.08124e-07 6.33301 0H19.667ZM2 13.4619C2 14.7944 2.00149 15.6972 2.08887 16.3721C2.17297 17.0215 2.32056 17.3076 2.50098 17.4951C2.67645 17.6773 2.93767 17.8233 3.5459 17.9082C4.18679 17.9976 5.04701 18 6.33301 18H19.667C20.953 18 21.8132 17.9976 22.4541 17.9082C23.0623 17.8233 23.3236 17.6773 23.499 17.4951C23.6794 17.3076 23.827 17.0215 23.9111 16.3721C23.9985 15.6972 24 14.7944 24 13.4619V8.92285H2V13.4619ZM6.44922 12.4668C6.95332 12.5182 7.34668 12.9443 7.34668 13.4619C7.34649 13.9794 6.95319 14.4047 6.44922 14.4561L6.34668 14.4619H6.33301C5.781 14.4617 5.33321 14.0139 5.33301 13.4619C5.33301 12.9097 5.78088 12.4621 6.33301 12.4619H6.34668L6.44922 12.4668ZM6.33301 2C5.04701 2 4.18679 2.00236 3.5459 2.0918C2.93767 2.17672 2.67645 2.32266 2.50098 2.50488C2.32055 2.69237 2.17297 2.97851 2.08887 3.62793C2.00149 4.3028 2 5.20562 2 6.53809V6.92285H24V6.53809C24 5.20562 23.9985 4.3028 23.9111 3.62793C23.827 2.97851 23.6794 2.69237 23.499 2.50488C23.3236 2.32266 23.0623 2.17672 22.4541 2.0918C21.8132 2.00236 20.953 2 19.667 2H6.33301Z" fill="white"/>
</svg>
